<svg width="36" height="11" viewBox="0 0 36 11" fill="none" xmlns="http://www.w3.org/2000/svg">
<path d="M7.80469 10H6.48535L1.47461 2.33008V10H0.155273V0.046875H1.47461L6.49902 7.75098V0.046875H7.80469V10ZM14.5039 10C14.431 9.85417 14.3717 9.5944 14.3262 9.2207C13.7383 9.83138 13.0365 10.1367 12.2207 10.1367C11.4915 10.1367 10.8923 9.93164 10.4229 9.52148C9.95801 9.10677 9.72559 8.58268 9.72559 7.94922C9.72559 7.17904 10.0173 6.58203 10.6006 6.1582C11.1885 5.72982 12.0133 5.51562 13.0752 5.51562H14.3057V4.93457C14.3057 4.49251 14.1735 4.1416 13.9092 3.88184C13.6449 3.61751 13.2552 3.48535 12.7402 3.48535C12.2891 3.48535 11.9108 3.59928 11.6055 3.82715C11.3001 4.05501 11.1475 4.33073 11.1475 4.6543H9.87598C9.87598 4.28516 10.0059 3.92969 10.2656 3.58789C10.5299 3.24154 10.8854 2.9681 11.332 2.76758C11.7832 2.56706 12.2777 2.4668 12.8154 2.4668C13.6676 2.4668 14.3353 2.68099 14.8184 3.10938C15.3014 3.5332 15.5521 4.11882 15.5703 4.86621V8.27051C15.5703 8.94954 15.6569 9.48958 15.8301 9.89062V10H14.5039ZM12.4053 9.03613C12.8018 9.03613 13.1777 8.93359 13.5332 8.72852C13.8887 8.52344 14.1462 8.25684 14.3057 7.92871V6.41113H13.3145C11.765 6.41113 10.9902 6.86458 10.9902 7.77148C10.9902 8.16797 11.1224 8.47786 11.3867 8.70117C11.651 8.92448 11.9906 9.03613 12.4053 9.03613ZM18.7422 2.60352L18.7764 3.42383C19.3187 2.78581 20.0501 2.4668 20.9707 2.4668C22.0052 2.4668 22.7093 2.86328 23.083 3.65625C23.3291 3.30078 23.6481 3.01367 24.04 2.79492C24.4365 2.57617 24.9036 2.4668 25.4414 2.4668C27.0638 2.4668 27.8887 3.32585 27.916 5.04395V10H26.6514V5.11914C26.6514 4.59049 26.5306 4.19629 26.2891 3.93652C26.0475 3.6722 25.6419 3.54004 25.0723 3.54004C24.6029 3.54004 24.2132 3.68132 23.9033 3.96387C23.5934 4.24186 23.4134 4.61784 23.3633 5.0918V10H22.0918V5.15332C22.0918 4.0778 21.5654 3.54004 20.5127 3.54004C19.6833 3.54004 19.1159 3.89323 18.8105 4.59961V10H17.5459V2.60352H18.7422ZM32.8994 10.1367C31.8968 10.1367 31.0811 9.80859 30.4521 9.15234C29.8232 8.49154 29.5088 7.6097 29.5088 6.50684V6.27441C29.5088 5.54069 29.6478 4.88672 29.9258 4.3125C30.2083 3.73372 30.6003 3.28255 31.1016 2.95898C31.6074 2.63086 32.1543 2.4668 32.7422 2.4668C33.7038 2.4668 34.4512 2.78353 34.9844 3.41699C35.5176 4.05046 35.7842 4.95736 35.7842 6.1377V6.66406H30.7734C30.7917 7.39323 31.0036 7.9834 31.4092 8.43457C31.8193 8.88118 32.3389 9.10449 32.9678 9.10449C33.4144 9.10449 33.7926 9.01335 34.1025 8.83105C34.4124 8.64876 34.6836 8.40723 34.916 8.10645L35.6885 8.70801C35.0687 9.66048 34.139 10.1367 32.8994 10.1367ZM32.7422 3.50586C32.2318 3.50586 31.8034 3.69271 31.457 4.06641C31.1107 4.43555 30.8965 4.95508 30.8145 5.625H34.5195V5.5293C34.4831 4.88672 34.3099 4.38997 34 4.03906C33.6901 3.68359 33.2708 3.50586 32.7422 3.50586Z" fill="#566885"/>
</svg>
